<svg width="21" height="21" viewBox="0 0 21 21" fill="none" xmlns="http://www.w3.org/2000/svg">
<g clip-path="url(#clip0_3_161)">
<path d="M14.0848 2.4214C10.8676 -0.795743 5.6328 -0.795677 2.41559 2.4214C-0.801617 5.63861 -0.801617 10.8734 2.41559 14.0905C5.14496 16.8199 9.20421 17.2332 12.3741 15.3317C12.3741 15.3317 12.6032 15.1951 12.7876 15.3796C13.8399 16.432 16.9974 19.5894 16.9974 19.5894C17.8352 20.4273 19.0068 20.6268 19.75 19.8837L19.8778 19.7558C20.621 19.0127 20.4216 17.841 19.5837 17.0032C19.5837 17.0032 16.4329 13.8524 15.3828 12.8022C15.1894 12.6089 15.326 12.3798 15.326 12.3798C17.2275 9.21003 16.8142 5.15076 14.0848 2.4214ZM12.5614 12.5672C10.1842 14.9444 6.31632 14.9443 3.93913 12.5671C1.56201 10.1899 1.56194 6.322 3.93913 3.94488C6.31625 1.56769 10.1842 1.56769 12.5614 3.94488C14.9385 6.32207 14.9385 10.1899 12.5614 12.5672Z" fill="white"/>
<path d="M7.76078 12.0411C7.76078 12.1517 7.73903 12.2642 7.69324 12.3726C7.50994 12.8057 7.01024 13.0083 6.5771 12.825C3.85461 11.673 2.57699 8.52091 3.72903 5.79849C3.91233 5.36541 4.41203 5.16279 4.84517 5.34609C5.27832 5.52945 5.48081 6.02902 5.29758 6.46229C4.5116 8.31973 5.38333 10.4705 7.24077 11.2564C7.56563 11.3939 7.76078 11.7093 7.76078 12.0411Z" fill="white"/>
</g>
<defs>
<clipPath id="clip0_3_161">
<rect width="20.3353" height="20.3353" fill="white" transform="translate(0.00292969 20.3442) rotate(-90)"/>
</clipPath>
</defs>
</svg>
