<svg width="23" height="23" viewBox="0 0 23 23" fill="none" xmlns="http://www.w3.org/2000/svg">
<g clip-path="url(#clip0_3_167)">
<path d="M15.8666 6.4736H17.8077L14.9302 1.5368C14.6983 1.13677 14.1846 1.00039 13.7846 1.23678C13.3846 1.46862 13.2482 1.9823 13.4846 2.38233L15.8666 6.4736Z" fill="white"/>
<path d="M9.27965 2.38227C9.51149 1.98223 9.37966 1.46855 8.97962 1.23671C8.57959 1.00487 8.06591 1.1367 7.83407 1.53674L4.95654 6.47808H6.89762L9.27965 2.38227Z" fill="white"/>
<path d="M21.0216 7.9873H1.729C0.942572 7.9873 0.306152 8.62372 0.306152 9.41016V10.9876C0.306152 11.774 0.942572 12.4104 1.729 12.4104H2.1745L3.54735 19.852C3.72009 20.7293 4.52016 21.4249 5.35205 21.4249H5.89755H9.47969C9.84336 21.4249 10.3161 21.4249 10.798 21.4249H11.2344H11.6708C12.1526 21.4249 12.6254 21.4249 12.9891 21.4249H16.5712H17.1167C17.9486 21.4249 18.7487 20.7293 18.9214 19.852L20.3034 12.4059H21.0262C21.8126 12.4059 22.449 11.7695 22.449 10.983V9.40561C22.4445 8.62372 21.808 7.9873 21.0216 7.9873ZM8.16139 15.4243V18.6337C8.16139 19.0928 7.78863 19.4383 7.35677 19.4383C6.89764 19.4383 6.55216 19.0656 6.55216 18.6337V17.2881V14.1333C6.55216 13.6742 6.92492 13.3287 7.35677 13.3287C7.8159 13.3287 8.16139 13.7014 8.16139 14.1333V15.4243ZM10.7434 15.4243V18.6337C10.7434 19.0928 10.3707 19.4383 9.93882 19.4383C9.47969 19.4383 9.1342 19.0656 9.1342 18.6337V17.2881V14.1333C9.1342 13.6742 9.50696 13.3287 9.93882 13.3287C10.3707 13.3287 10.7434 13.7014 10.7434 14.1333V15.4243ZM13.3391 17.2881V18.6337C13.3391 19.0656 12.9936 19.4383 12.5345 19.4383C12.1026 19.4383 11.7299 19.0928 11.7299 18.6337V15.4243V14.1333C11.7299 13.7014 12.1026 13.3287 12.5345 13.3287C12.9664 13.3287 13.3391 13.6742 13.3391 14.1333V17.2881ZM15.9212 17.2881V18.6337C15.9212 19.0656 15.5757 19.4383 15.1165 19.4383C14.6847 19.4383 14.3119 19.0928 14.3119 18.6337V15.4243V14.1333C14.3119 13.7014 14.6574 13.3287 15.1165 13.3287C15.5484 13.3287 15.9212 13.6742 15.9212 14.1333V17.2881Z" fill="white"/>
</g>
<defs>
<clipPath id="clip0_3_167">
<rect width="22.1429" height="22.1429" fill="white" transform="translate(0.306152 0.201172)"/>
</clipPath>
</defs>
</svg>
