<svg width="13" height="13" viewBox="0 0 13 13" fill="none" xmlns="http://www.w3.org/2000/svg">
<path fill-rule="evenodd" clip-rule="evenodd" d="M8.93743 11.0662C8.85794 11.0662 8.77795 11.0476 8.7045 11.0094L6.13928 9.66915L3.57457 11.0094C3.40452 11.0974 3.19927 11.0823 3.04532 10.9696C2.89037 10.8569 2.8134 10.6663 2.8461 10.4776L3.33459 7.64625L1.26189 5.64147C1.12405 5.50815 1.07424 5.30792 1.1331 5.1248C1.19196 4.94268 1.34943 4.80937 1.53959 4.7822L4.40717 4.36565L5.68902 1.78685C5.85906 1.44475 6.42 1.44475 6.59004 1.78685L7.8719 4.36565L10.7395 4.7822C10.9296 4.80937 11.0871 4.94268 11.146 5.1248C11.2048 5.30792 11.155 5.50815 11.0172 5.64147L8.94447 7.64625L9.43297 10.4776C9.46567 10.6663 9.38819 10.8569 9.23375 10.9696C9.14621 11.034 9.04207 11.0662 8.93743 11.0662Z" fill="black"/>
<mask id="mask0_174_70" style="mask-type:alpha" maskUnits="userSpaceOnUse" x="1" y="1" width="11" height="11">
<path fill-rule="evenodd" clip-rule="evenodd" d="M8.93743 11.0662C8.85794 11.0662 8.77795 11.0476 8.7045 11.0094L6.13928 9.66915L3.57457 11.0094C3.40452 11.0974 3.19927 11.0823 3.04532 10.9696C2.89037 10.8569 2.8134 10.6663 2.8461 10.4776L3.33459 7.64625L1.26189 5.64147C1.12405 5.50815 1.07424 5.30792 1.1331 5.1248C1.19196 4.94268 1.34943 4.80937 1.53959 4.7822L4.40717 4.36565L5.68902 1.78685C5.85906 1.44475 6.42 1.44475 6.59004 1.78685L7.8719 4.36565L10.7395 4.7822C10.9296 4.80937 11.0871 4.94268 11.146 5.1248C11.2048 5.30792 11.155 5.50815 11.0172 5.64147L8.94447 7.64625L9.43297 10.4776C9.46567 10.6663 9.38819 10.8569 9.23375 10.9696C9.14621 11.034 9.04207 11.0662 8.93743 11.0662Z" fill="white"/>
</mask>
<g mask="url(#mask0_174_70)">
<rect x="0.102539" y="0.500977" width="12.074" height="12.074" fill="#00AC4E"/>
</g>
</svg>
