<svg width="14" height="4" viewBox="0 0 14 4" fill="none" xmlns="http://www.w3.org/2000/svg">
<path d="M3.1 2.82C2.84667 3.07333 2.54667 3.2 2.2 3.2C1.85333 3.2 1.54667 3.07333 1.28 2.82C1.02667 2.55333 0.9 2.24667 0.9 1.9C0.9 1.55333 1.02667 1.25333 1.28 1C1.54667 0.733333 1.85333 0.6 2.2 0.6C2.54667 0.6 2.84667 0.733333 3.1 1C3.36667 1.25333 3.5 1.55333 3.5 1.9C3.5 2.24667 3.36667 2.55333 3.1 2.82ZM8 2.82C7.74667 3.07333 7.44667 3.2 7.1 3.2C6.75333 3.2 6.44667 3.07333 6.18 2.82C5.92667 2.55333 5.8 2.24667 5.8 1.9C5.8 1.55333 5.92667 1.25333 6.18 1C6.44667 0.733333 6.75333 0.6 7.1 0.6C7.44667 0.6 7.74667 0.733333 8 1C8.26667 1.25333 8.4 1.55333 8.4 1.9C8.4 2.24667 8.26667 2.55333 8 2.82ZM12.9 2.82C12.6467 3.07333 12.3467 3.2 12 3.2C11.6533 3.2 11.3467 3.07333 11.08 2.82C10.8267 2.55333 10.7 2.24667 10.7 1.9C10.7 1.55333 10.8267 1.25333 11.08 1C11.3467 0.733333 11.6533 0.6 12 0.6C12.3467 0.6 12.6467 0.733333 12.9 1C13.1667 1.25333 13.3 1.55333 13.3 1.9C13.3 2.24667 13.1667 2.55333 12.9 2.82Z" fill="black"/>
</svg>
