<svg width="113" height="83" viewBox="0 0 113 83" fill="none" xmlns="http://www.w3.org/2000/svg">
<path d="M74.8345 32.7507L73.6441 21.8158C73.4935 20.432 72.3301 19.3884 70.938 19.3884H70.0708V17.3983C70.0708 14.7692 67.9318 12.6303 65.3028 12.6303C62.6737 12.6303 60.5348 14.7693 60.5348 17.3983V19.3884H59.6676C58.2756 19.3884 57.1122 20.4319 56.9615 21.8158L55.771 32.7507C55.5958 34.3604 56.8588 35.7672 58.4771 35.7672H72.1286C73.7451 35.7673 75.01 34.3624 74.8345 32.7507ZM72.1286 34.4063H58.4772C57.6654 34.4063 57.0363 33.7039 57.1242 32.898L58.3146 21.9632C58.39 21.2713 58.9717 20.7494 59.6676 20.7494H60.5348V22.4669C60.5348 22.8427 60.8395 23.1474 61.2153 23.1474C61.5911 23.1474 61.8958 22.8427 61.8958 22.4669V17.3984C61.8958 15.5198 63.4242 13.9914 65.3029 13.9914C67.1815 13.9914 68.7099 15.5198 68.7099 17.3984V19.3884H64.4026C64.0268 19.3884 63.7221 19.6931 63.7221 20.0689C63.7221 20.4447 64.0268 20.7494 64.4026 20.7494H68.7099V22.4669C68.7099 22.8427 69.0146 23.1474 69.3904 23.1474C69.7662 23.1474 70.0709 22.8427 70.0709 22.4669V20.7494H70.9381C71.6342 20.7494 72.2158 21.2712 72.2911 21.9631L73.4816 32.8979C73.5695 33.705 72.9394 34.4063 72.1286 34.4063ZM67.6847 38.3192C67.3088 38.3192 67.0042 38.6239 67.0042 38.9997C67.0042 39.7501 66.3936 40.3607 65.6432 40.3607H39.9544C39.204 40.3607 38.5934 39.7501 38.5934 38.9997V3.61384C38.5934 2.86342 39.204 2.25285 39.9544 2.25285H59.0934V7.44164C59.0934 8.94256 60.3144 10.1636 61.8154 10.1636H67.6847C68.2896 10.1636 68.5934 9.42945 68.1658 9.00193C59.6467 0.48279 60.1982 0.962796 59.907 0.905039C59.813 0.88641 60.8968 0.891854 39.9544 0.891854C38.4535 0.891854 37.2324 2.11292 37.2324 3.61384V38.9997C37.2324 40.5006 38.4535 41.7217 39.9544 41.7217H65.6432C67.1441 41.7217 68.3652 40.5006 68.3652 38.9997C68.3652 38.6238 68.0605 38.3192 67.6847 38.3192ZM61.8154 8.80263C61.065 8.80263 60.4544 8.19205 60.4544 7.44164V3.21516L66.0418 8.80263H61.8154ZM48.0451 10.9295C48.0473 9.79956 47.1337 8.88404 46.0036 8.88404H44.6302C43.5046 8.88404 42.5887 9.79981 42.5887 10.9255V12.2937C42.5887 13.4195 43.5046 14.3352 44.6302 14.3352H46.001C47.1245 14.3352 48.0404 13.4212 48.0425 12.2977L48.0451 10.9295ZM46.6815 12.2951C46.6808 12.6696 46.3755 12.9742 46.001 12.9742H44.6302C44.255 12.9742 43.9497 12.669 43.9497 12.2937V10.9255C43.9497 10.5503 44.255 10.245 44.6302 10.245H46.0036C46.3803 10.245 46.6848 10.5501 46.6841 10.9268L46.6815 12.2951ZM48.0353 21.1366C48.0353 20.0109 47.1194 19.0951 45.9938 19.0951H44.6328C43.5072 19.0951 42.5913 20.0109 42.5913 21.1366V22.4976C42.5913 23.6233 43.5072 24.5391 44.6328 24.5391H45.9938C47.1194 24.5391 48.0353 23.6233 48.0353 22.4976V21.1366ZM46.6743 22.4976C46.6743 22.8728 46.369 23.1781 45.9938 23.1781H44.6328C44.2576 23.1781 43.9523 22.8728 43.9523 22.4976V21.1366C43.9523 20.7614 44.2576 20.4561 44.6328 20.4561H45.9938C46.369 20.4561 46.6743 20.7614 46.6743 21.1366V22.4976ZM45.9938 29.3026H44.6328C43.5072 29.3026 42.5913 30.2184 42.5913 31.3441V32.7051C42.5913 33.8308 43.5072 34.7466 44.6328 34.7466H45.9938C47.1194 34.7466 48.0353 33.8308 48.0353 32.7051V31.3441C48.0353 30.2184 47.1194 29.3026 45.9938 29.3026ZM46.6743 32.7051C46.6743 33.0803 46.369 33.3856 45.9938 33.3856H44.6328C44.2576 33.3856 43.9523 33.0803 43.9523 32.7051V31.3441C43.9523 30.9689 44.2576 30.6636 44.6328 30.6636H45.9938C46.369 30.6636 46.6743 30.9689 46.6743 31.3441V32.7051ZM56.0416 12.2902H51.3632C50.9874 12.2902 50.6827 11.9855 50.6827 11.6097C50.6827 11.2339 50.9874 10.9292 51.3632 10.9292H56.0416C56.4174 10.9292 56.7221 11.2339 56.7221 11.6097C56.7221 11.9855 56.4174 12.2902 56.0416 12.2902ZM54.0852 22.4976H51.3632C50.9874 22.4976 50.6827 22.1929 50.6827 21.8171C50.6827 21.4413 50.9874 21.1366 51.3632 21.1366H54.0852C54.461 21.1366 54.7657 21.4413 54.7657 21.8171C54.7657 22.1929 54.461 22.4976 54.0852 22.4976ZM53.0644 31.3441C53.4402 31.3441 53.7449 31.6488 53.7449 32.0246C53.7449 32.4004 53.4402 32.7051 53.0644 32.7051H51.3632C50.9874 32.7051 50.6827 32.4004 50.6827 32.0246C50.6827 31.6488 50.9874 31.3441 51.3632 31.3441H53.0644Z" fill="white"/>
<path d="M2.36888 77.1165V67.113H3.94086V74.4727L9.44278 67.113H10.8718V77.1165H9.29987V69.7567L3.79795 77.1165H2.36888ZM18.3734 74.9014L19.3737 75.8303C19.1736 76.0875 18.9259 76.3257 18.6306 76.5448C17.9637 77.0212 17.2349 77.2594 16.4441 77.2594C15.4438 77.2594 14.5958 76.9164 13.9004 76.2304C13.2144 75.535 12.8714 74.687 12.8714 73.6867C12.8714 72.6863 13.2144 71.8432 13.9004 71.1572C14.5958 70.4618 15.4438 70.114 16.4441 70.114C17.2539 70.114 17.9732 70.3427 18.602 70.8C18.8878 71.0096 19.1212 71.2334 19.3022 71.4716L18.3019 72.4005C18.1685 72.2195 18.0113 72.0671 17.8303 71.9432C17.3825 71.6288 16.9205 71.4716 16.4441 71.4716C15.8344 71.4716 15.3247 71.6812 14.915 72.1004C14.5053 72.5101 14.3005 73.0388 14.3005 73.6867C14.3005 74.3345 14.5053 74.8681 14.915 75.2872C15.3247 75.6969 15.8344 75.9017 16.4441 75.9017C16.9872 75.9017 17.4587 75.735 17.8589 75.4016C18.0304 75.2682 18.2019 75.1015 18.3734 74.9014ZM22.368 77.1165V71.6145H20.0101V70.2569H26.1551V71.6145H23.7971V77.1165H22.368ZM27.898 76.2304C27.212 75.535 26.8691 74.687 26.8691 73.6867C26.8691 72.6863 27.212 71.8432 27.898 71.1572C28.5935 70.4618 29.4414 70.114 30.4417 70.114C31.4421 70.114 32.2852 70.4618 32.9712 71.1572C33.6667 71.8432 34.0144 72.6863 34.0144 73.6867C34.0144 74.687 33.6667 75.535 32.9712 76.2304C32.2852 76.9164 31.4421 77.2594 30.4417 77.2594C29.4414 77.2594 28.5935 76.9164 27.898 76.2304ZM28.9126 75.2872C29.3223 75.6969 29.832 75.9017 30.4417 75.9017C31.0515 75.9017 31.5612 75.6969 31.9708 75.2872C32.3805 74.8681 32.5853 74.3345 32.5853 73.6867C32.5853 73.0388 32.3805 72.5101 31.9708 72.1004C31.5612 71.6812 31.0515 71.4716 30.4417 71.4716C29.832 71.4716 29.3223 71.6812 28.9126 72.1004C28.503 72.5101 28.2981 73.0388 28.2981 73.6867C28.2981 74.3345 28.503 74.8681 28.9126 75.2872ZM35.5875 80.1175V70.2569H37.0166V71.2573C37.15 71.0477 37.3357 70.8571 37.5739 70.6856C38.0884 70.3046 38.6886 70.114 39.3745 70.114C40.251 70.114 41.0037 70.457 41.6325 71.1429C42.2708 71.8194 42.5899 72.6673 42.5899 73.6867C42.5899 74.7061 42.2708 75.5588 41.6325 76.2447C41.0037 76.9211 40.251 77.2594 39.3745 77.2594C38.6886 77.2594 38.0884 77.0688 37.5739 76.6877C37.3357 76.5067 37.15 76.3162 37.0166 76.1161V80.1175H35.5875ZM37.6168 75.273C38.0169 75.6921 38.5076 75.9017 39.0887 75.9017C39.6699 75.9017 40.1605 75.6921 40.5607 75.273C40.9608 74.8538 41.1609 74.325 41.1609 73.6867C41.1609 73.0484 40.9608 72.5196 40.5607 72.1004C40.1605 71.6812 39.6699 71.4716 39.0887 71.4716C38.5076 71.4716 38.0169 71.6812 37.6168 72.1004C37.2166 72.5196 37.0166 73.0484 37.0166 73.6867C37.0166 74.325 37.2166 74.8538 37.6168 75.273ZM44.1563 77.1165V70.2569H45.5854V74.8299L49.1581 70.2569H50.4443V77.1165H49.0152V72.5434L45.4425 77.1165H44.1563ZM51.9459 77.1165L53.5179 74.6156C53.2797 74.5203 53.051 74.3726 52.8319 74.1726C52.3841 73.7438 52.1603 73.2008 52.1603 72.5434C52.1603 71.8861 52.3984 71.343 52.8748 70.9143C53.3511 70.476 53.9942 70.2569 54.804 70.2569H57.8765V77.1165H56.4475V74.8299H54.9469L53.5893 77.1165H51.9459ZM54.804 73.5438H56.4475V71.5431H54.804C54.4134 71.5431 54.1133 71.6384 53.9037 71.8289C53.6941 72.0099 53.5893 72.2481 53.5893 72.5434C53.5893 72.8388 53.6941 73.0817 53.9037 73.2723C54.1133 73.4533 54.4134 73.5438 54.804 73.5438ZM62.085 76.0447L63.0139 75.1158C63.1473 75.2682 63.314 75.4111 63.5141 75.5445C63.9523 75.8303 64.4049 75.9732 64.8717 75.9732C65.2528 75.9732 65.5481 75.8875 65.7577 75.716C65.9769 75.535 66.0864 75.3111 66.0864 75.0443C66.0864 74.8061 65.9769 74.6061 65.7577 74.4441C65.5481 74.2726 65.2528 74.1869 64.8717 74.1869H63.9428V72.9007H64.8003C65.1432 72.9007 65.4052 72.8292 65.5863 72.6863C65.7768 72.5434 65.8721 72.3767 65.8721 72.1862C65.8721 71.9575 65.7816 71.7717 65.6005 71.6288C65.4195 71.4764 65.1528 71.4002 64.8003 71.4002C64.362 71.4002 63.9619 71.5002 63.5998 71.7003C63.4569 71.767 63.3093 71.8622 63.1568 71.9861L62.2279 71.0572C62.409 70.8857 62.6233 70.7285 62.871 70.5856C63.4808 70.2712 64.1238 70.114 64.8003 70.114C65.5815 70.114 66.2055 70.3046 66.6723 70.6856C67.1392 71.0667 67.3726 71.5193 67.3726 72.0433C67.3726 72.5291 67.182 72.9245 66.801 73.2294C66.6009 73.3818 66.4103 73.4866 66.2293 73.5438C66.477 73.6295 66.7009 73.7438 66.901 73.8868C67.3583 74.2488 67.587 74.6823 67.587 75.1872C67.587 75.7493 67.3392 76.2352 66.8438 76.6449C66.3484 77.0545 65.6911 77.2594 64.8717 77.2594C64.0905 77.2594 63.395 77.0593 62.7853 76.6592C62.4899 76.4686 62.2565 76.2638 62.085 76.0447ZM73.1665 77.1165V76.1161C73.0331 76.3162 72.8521 76.5067 72.6234 76.6877C72.109 77.0688 71.5516 77.2594 70.9514 77.2594C70.2845 77.2594 69.7367 77.0641 69.308 76.6734C68.8793 76.2828 68.6649 75.8112 68.6649 75.2587C68.6649 74.6966 68.8411 74.225 69.1936 73.8439C69.5557 73.4628 70.0463 73.2199 70.6656 73.1151L73.1665 72.6863C73.1665 72.3148 73.0331 72.0099 72.7663 71.7717C72.4996 71.524 72.1566 71.4002 71.7374 71.4002C71.3182 71.4002 70.8847 71.5574 70.4369 71.8718C70.275 71.9861 70.113 72.1385 69.9511 72.3291L69.0222 71.4002C69.2127 71.1525 69.4414 70.9381 69.7081 70.7571C70.3083 70.3284 70.9848 70.114 71.7374 70.114C72.5853 70.114 73.2713 70.3665 73.7953 70.8714C74.3288 71.3668 74.5955 71.9956 74.5955 72.7578V77.1165H73.1665ZM73.1665 74.044V73.8296L71.1658 74.1869C70.4512 74.3107 70.094 74.6203 70.094 75.1158C70.094 75.373 70.194 75.5921 70.3941 75.7731C70.6037 75.9541 70.8847 76.0447 71.2372 76.0447C71.7803 76.0447 72.2376 75.8541 72.6091 75.473C72.9807 75.0919 73.1665 74.6156 73.1665 74.044ZM76.5895 77.1165V70.2569H78.0186V73.4009L80.9482 70.2569H82.7345L80.0908 73.0436L82.9489 77.1165H81.3055L79.1619 74.044L78.0186 75.2587V77.1165H76.5895ZM87.8061 77.1165V76.1161C87.6727 76.3162 87.4917 76.5067 87.263 76.6877C86.7485 77.0688 86.1912 77.2594 85.591 77.2594C84.9241 77.2594 84.3763 77.0641 83.9476 76.6734C83.5188 76.2828 83.3045 75.8112 83.3045 75.2587C83.3045 74.6966 83.4807 74.225 83.8332 73.8439C84.1953 73.4628 84.6859 73.2199 85.3052 73.1151L87.8061 72.6863C87.8061 72.3148 87.6727 72.0099 87.4059 71.7717C87.1392 71.524 86.7962 71.4002 86.377 71.4002C85.9578 71.4002 85.5243 71.5574 85.0765 71.8718C84.9146 71.9861 84.7526 72.1385 84.5907 72.3291L83.6618 71.4002C83.8523 71.1525 84.0809 70.9381 84.3477 70.7571C84.9479 70.3284 85.6243 70.114 86.377 70.114C87.2249 70.114 87.9109 70.3665 88.4349 70.8714C88.9684 71.3668 89.2351 71.9956 89.2351 72.7578V77.1165H87.8061ZM87.8061 74.044V73.8296L85.8054 74.1869C85.0908 74.3107 84.7336 74.6203 84.7336 75.1158C84.7336 75.373 84.8336 75.5921 85.0337 75.7731C85.2433 75.9541 85.5243 76.0447 85.8768 76.0447C86.4199 76.0447 86.8772 75.8541 87.2487 75.473C87.6203 75.0919 87.8061 74.6156 87.8061 74.044ZM90.4431 76.0447L91.372 75.1158C91.5054 75.2682 91.6721 75.4111 91.8722 75.5445C92.3105 75.8303 92.763 75.9732 93.2298 75.9732C93.6109 75.9732 93.9063 75.8875 94.1159 75.716C94.335 75.535 94.4445 75.3111 94.4445 75.0443C94.4445 74.8061 94.335 74.6061 94.1159 74.4441C93.9063 74.2726 93.6109 74.1869 93.2298 74.1869H92.3009V72.9007H93.1584C93.5014 72.9007 93.7633 72.8292 93.9444 72.6863C94.1349 72.5434 94.2302 72.3767 94.2302 72.1862C94.2302 71.9575 94.1397 71.7717 93.9587 71.6288C93.7776 71.4764 93.5109 71.4002 93.1584 71.4002C92.7201 71.4002 92.32 71.5002 91.958 71.7003C91.8151 71.767 91.6674 71.8622 91.5149 71.9861L90.5861 71.0572C90.7671 70.8857 90.9814 70.7285 91.2291 70.5856C91.8389 70.2712 92.4819 70.114 93.1584 70.114C93.9396 70.114 94.5636 70.3046 95.0305 70.6856C95.4973 71.0667 95.7307 71.5193 95.7307 72.0433C95.7307 72.5291 95.5402 72.9245 95.1591 73.2294C94.959 73.3818 94.7685 73.4866 94.5874 73.5438C94.8352 73.6295 95.059 73.7438 95.2591 73.8868C95.7164 74.2488 95.9451 74.6823 95.9451 75.1872C95.9451 75.7493 95.6974 76.2352 95.2019 76.6449C94.7065 77.0545 94.0492 77.2594 93.2298 77.2594C92.4486 77.2594 91.7531 77.0593 91.1434 76.6592C90.848 76.4686 90.6146 76.2638 90.4431 76.0447ZM98.1234 76.2304C97.4374 75.535 97.0945 74.687 97.0945 73.6867C97.0945 72.6863 97.4374 71.8432 98.1234 71.1572C98.8189 70.4618 99.6668 70.114 100.667 70.114C101.667 70.114 102.511 70.4618 103.197 71.1572C103.892 71.8432 104.24 72.6863 104.24 73.6867C104.24 74.687 103.892 75.535 103.197 76.2304C102.511 76.9164 101.667 77.2594 100.667 77.2594C99.6668 77.2594 98.8189 76.9164 98.1234 76.2304ZM99.138 75.2872C99.5477 75.6969 100.057 75.9017 100.667 75.9017C101.277 75.9017 101.787 75.6969 102.196 75.2872C102.606 74.8681 102.811 74.3345 102.811 73.6867C102.811 73.0388 102.606 72.5101 102.196 72.1004C101.787 71.6812 101.277 71.4716 100.667 71.4716C100.057 71.4716 99.5477 71.6812 99.138 72.1004C98.7284 72.5101 98.5235 73.0388 98.5235 73.6867C98.5235 74.3345 98.7284 74.8681 99.138 75.2872ZM105.813 77.1165V70.2569H109.028C109.714 70.2569 110.267 70.4379 110.686 70.8C111.105 71.162 111.315 71.6002 111.315 72.1147C111.315 72.5339 111.172 72.8864 110.886 73.1722C110.762 73.3056 110.619 73.4056 110.457 73.4723C110.667 73.5581 110.858 73.6724 111.029 73.8153C111.41 74.1773 111.601 74.6108 111.601 75.1158C111.601 75.6683 111.377 76.1399 110.929 76.5305C110.481 76.9211 109.895 77.1165 109.171 77.1165H105.813ZM107.242 75.8303H109.1C109.414 75.8303 109.657 75.7541 109.829 75.6016C110.01 75.4397 110.1 75.2301 110.1 74.9728C110.1 74.7156 110.01 74.5108 109.829 74.3583C109.657 74.1964 109.414 74.1154 109.1 74.1154H107.242V75.8303ZM107.242 72.9722H108.957C109.528 72.9722 109.814 72.734 109.814 72.2576C109.814 71.7813 109.528 71.5431 108.957 71.5431H107.242V72.9722Z" fill="white"/>
</svg>
