<svg width="108" height="81" viewBox="0 0 108 81" fill="none" xmlns="http://www.w3.org/2000/svg">
<path d="M71.63 0.854736H36.2435C34.7426 0.854736 33.5215 2.07583 33.5215 3.57677V28.0751C33.5215 29.5761 34.7426 30.7972 36.2435 30.7972H50.8745V33.4341C50.8745 33.8099 51.1792 34.1146 51.555 34.1146C51.9308 34.1146 52.2355 33.8099 52.2355 33.4341V30.9673H55.638V33.4341C55.638 33.8099 55.9427 34.1146 56.3186 34.1146C56.6944 34.1146 56.9991 33.8099 56.9991 33.4341V30.7972H71.63C73.131 30.7972 74.3521 29.5761 74.3521 28.0751V3.57677C74.3521 2.07591 73.131 0.854736 71.63 0.854736ZM72.991 28.0751C72.991 28.8255 72.3804 29.4361 71.63 29.4361H36.2435C35.4931 29.4361 34.8825 28.8255 34.8825 28.0751V3.57677C34.8825 2.82634 35.4931 2.21576 36.2435 2.21576H71.63C72.3804 2.21576 72.991 2.82634 72.991 3.57677V28.0751ZM64.1137 37.2941C64.0023 37.6523 63.6214 37.8534 63.2617 37.7417C57.542 35.9621 50.2948 35.9738 44.6118 37.7417C44.2529 37.8532 43.8715 37.653 43.7598 37.2941C43.6481 36.9351 43.8486 36.5538 44.2074 36.4421C50.1553 34.5917 57.6848 34.5812 63.6661 36.4421C64.025 36.5538 64.2253 36.9352 64.1137 37.2941ZM61.0317 13.5516C60.9118 12.4513 59.9869 11.6217 58.8802 11.6217H58.0367V10.0459C58.0367 7.76633 56.1821 5.91177 53.9026 5.91177C51.623 5.91177 49.7686 7.76625 49.7686 10.0458V11.6216H48.9252C47.8184 11.6216 46.8935 12.4513 46.7736 13.5515L45.7154 23.2726C45.576 24.5525 46.5802 25.6711 47.8669 25.6711H59.9385C61.226 25.6711 62.2293 24.5517 62.09 23.2726L61.0317 13.5516ZM59.9385 24.3101H47.8669C47.3878 24.3101 47.0165 23.8956 47.0684 23.4199L48.1267 13.6989C48.1711 13.2905 48.5145 12.9826 48.9252 12.9826H49.7686V14.3281C49.7686 14.704 50.0733 15.0087 50.4492 15.0087C50.825 15.0087 51.1297 14.704 51.1297 14.3281V10.0457C51.1297 8.51659 52.3736 7.27262 53.9027 7.27262C55.4318 7.27262 56.6757 8.51659 56.6757 10.0457V11.6215H53.1421C52.7663 11.6215 52.4616 11.9262 52.4616 12.302C52.4616 12.6778 52.7663 12.9825 53.1421 12.9825H56.6757V14.3281C56.6757 14.7039 56.9804 15.0086 57.3562 15.0086C57.7321 15.0086 58.0368 14.7039 58.0368 14.3281V12.9825H58.8802C59.2909 12.9825 59.6343 13.2905 59.6787 13.6988L60.737 23.4198C60.7889 23.896 60.417 24.3101 59.9385 24.3101Z" fill="white"/>
<path d="M1.06213 75.0509V73.6218C1.1574 73.6599 1.23362 73.6837 1.29078 73.6932C1.46227 73.7409 1.64805 73.7647 1.84812 73.7647C2.10535 73.7647 2.32924 73.6932 2.51978 73.5503C2.71985 73.3979 2.90563 73.1311 3.07712 72.7501C3.25814 72.369 3.39628 71.7926 3.49155 71.0209C3.58682 70.2397 3.63446 69.2727 3.63446 68.1199V65.1188H10.4225V75.1223H8.85057V66.6193H5.20644V68.1199C5.20644 69.2631 5.15404 70.2587 5.04924 71.1066C4.95397 71.9545 4.81582 72.6405 4.63481 73.1645C4.46332 73.6885 4.2442 74.1124 3.97744 74.4364C3.71068 74.7508 3.42963 74.9699 3.13429 75.0937C2.84847 75.2081 2.51502 75.2652 2.13394 75.2652C1.83859 75.2652 1.58136 75.2319 1.36224 75.1652L1.06213 75.0509ZM12.852 75.1223V68.2628H14.281V72.8358L17.8537 68.2628H19.1399V75.1223H17.7108V70.5493L14.1381 75.1223H12.852ZM25.4289 75.1223V72.6214C25.2574 72.7262 25.0907 72.812 24.9287 72.8787C24.5191 73.0406 24.0665 73.1216 23.5711 73.1216C22.8089 73.1216 22.1897 72.8644 21.7133 72.3499C21.237 71.8355 20.9988 71.14 20.9988 70.2635V68.2628H22.4278V70.2635C22.4278 70.7208 22.5565 71.0876 22.8137 71.3639C23.0805 71.6306 23.4282 71.764 23.8569 71.764C24.2856 71.764 24.6715 71.683 25.0145 71.5211C25.186 71.4448 25.3241 71.3591 25.4289 71.2638V68.2628H26.858V75.1223H25.4289ZM28.8592 75.1223V68.2628H30.2883V70.978H33.6466V68.2628H35.0757V75.1223H33.6466V72.2642H30.2883V75.1223H28.8592ZM43.5814 75.1223V68.2628H45.0105V75.1223H43.5814ZM38.5082 73.8362H39.9373C40.3279 73.8362 40.628 73.7409 40.8376 73.5503C41.0472 73.3598 41.152 73.0978 41.152 72.7643C41.152 72.4309 41.0472 72.1689 40.8376 71.9784C40.628 71.7878 40.3279 71.6925 39.9373 71.6925H38.5082V73.8362ZM37.0792 75.1223V68.2628H38.5082V70.4064H39.9373C40.7471 70.4064 41.3902 70.6255 41.8665 71.0638C42.3429 71.502 42.5811 72.0689 42.5811 72.7643C42.5811 73.4598 42.3429 74.0267 41.8665 74.4649C41.3902 74.9032 40.7471 75.1223 39.9373 75.1223H37.0792ZM52.2318 72.9787L53.0892 73.9791C52.9082 74.2172 52.67 74.4316 52.3747 74.6221C51.7268 75.0509 50.9885 75.2652 50.1596 75.2652C49.1593 75.2652 48.3114 74.9222 47.6159 74.2363C46.9299 73.5408 46.5869 72.6929 46.5869 71.6925C46.5869 70.6922 46.9252 69.849 47.6016 69.1631C48.2875 68.4676 49.1164 68.1199 50.0882 68.1199C51.0599 68.1199 51.8602 68.439 52.489 69.0773C53.1273 69.7061 53.4465 70.5064 53.4465 71.4782C53.4465 71.5639 53.4322 71.7354 53.4036 71.9927L53.375 72.1927H48.0875C48.1732 72.6786 48.4114 73.0883 48.802 73.4217C49.1926 73.7456 49.669 73.9076 50.2311 73.9076C50.7455 73.9076 51.2314 73.7552 51.6887 73.4503C51.8983 73.3169 52.0793 73.1597 52.2318 72.9787ZM48.0875 70.978H51.946C51.8316 70.4921 51.6173 70.111 51.3029 69.8348C50.9885 69.5489 50.5836 69.406 50.0882 69.406C49.0783 69.406 48.4114 69.93 48.0875 70.978ZM57.0125 76.8372V73.7647H57.5126C57.7127 73.5551 57.9032 73.2741 58.0843 72.9215C58.4654 72.1594 58.6559 71.2734 58.6559 70.2635V68.2628H63.6576V73.7647H64.658V76.8372H63.2289V75.1223H58.4415V76.8372H57.0125ZM59.0132 73.7647H62.2286V69.6204H60.085V70.2635C60.085 71.2734 59.9039 72.1594 59.5419 72.9215C59.3895 73.2359 59.2132 73.517 59.0132 73.7647ZM69.9411 75.1223V74.122C69.8077 74.322 69.6267 74.5126 69.398 74.6936C68.8836 75.0747 68.3262 75.2652 67.726 75.2652C67.0591 75.2652 66.5113 75.0699 66.0826 74.6793C65.6539 74.2887 65.4395 73.8171 65.4395 73.2645C65.4395 72.7024 65.6158 72.2308 65.9683 71.8497C66.3303 71.4687 66.8209 71.2257 67.4402 71.1209L69.9411 70.6922C69.9411 70.3206 69.8077 70.0158 69.5409 69.7776C69.2742 69.5299 68.9312 69.406 68.512 69.406C68.0928 69.406 67.6593 69.5632 67.2116 69.8776C67.0496 69.992 66.8876 70.1444 66.7257 70.3349L65.7968 69.406C65.9873 69.1583 66.216 68.944 66.4827 68.763C67.0829 68.3342 67.7594 68.1199 68.512 68.1199C69.3599 68.1199 70.0459 68.3723 70.5699 68.8773C71.1034 69.3727 71.3701 70.0015 71.3701 70.7637V75.1223H69.9411ZM69.9411 72.0498V71.8355L67.9404 72.1927C67.2258 72.3166 66.8686 72.6262 66.8686 73.1216C66.8686 73.3788 66.9686 73.598 67.1687 73.779C67.3783 73.96 67.6593 74.0505 68.0118 74.0505C68.5549 74.0505 69.0122 73.86 69.3837 73.4789C69.7553 73.0978 69.9411 72.6214 69.9411 72.0498ZM73.3641 75.1223V68.2628H74.7932V70.978H78.1515V68.2628H79.5806V75.1223H78.1515V72.2642H74.7932V75.1223H73.3641ZM81.5841 75.1223V68.2628H83.0132V70.978H86.3715V68.2628H87.8005V75.1223H86.3715V72.2642H83.0132V75.1223H81.5841ZM96.3063 75.1223V68.2628H97.7354V75.1223H96.3063ZM91.2331 73.8362H92.6622C93.0528 73.8362 93.3529 73.7409 93.5625 73.5503C93.7721 73.3598 93.8769 73.0978 93.8769 72.7643C93.8769 72.4309 93.7721 72.1689 93.5625 71.9784C93.3529 71.7878 93.0528 71.6925 92.6622 71.6925H91.2331V73.8362ZM89.804 75.1223V68.2628H91.2331V70.4064H92.6622C93.472 70.4064 94.1151 70.6255 94.5914 71.0638C95.0678 71.502 95.3059 72.0689 95.3059 72.7643C95.3059 73.4598 95.0678 74.0267 94.5914 74.4649C94.1151 74.9032 93.472 75.1223 92.6622 75.1223H89.804ZM104.957 72.9787L105.814 73.9791C105.633 74.2172 105.395 74.4316 105.1 74.6221C104.452 75.0509 103.713 75.2652 102.884 75.2652C101.884 75.2652 101.036 74.9222 100.341 74.2363C99.6548 73.5408 99.3118 72.6929 99.3118 71.6925C99.3118 70.6922 99.65 69.849 100.326 69.1631C101.012 68.4676 101.841 68.1199 102.813 68.1199C103.785 68.1199 104.585 68.439 105.214 69.0773C105.852 69.7061 106.171 70.5064 106.171 71.4782C106.171 71.5639 106.157 71.7354 106.128 71.9927L106.1 72.1927H100.812C100.898 72.6786 101.136 73.0883 101.527 73.4217C101.917 73.7456 102.394 73.9076 102.956 73.9076C103.47 73.9076 103.956 73.7552 104.414 73.4503C104.623 73.3169 104.804 73.1597 104.957 72.9787ZM100.812 70.978H104.671C104.557 70.4921 104.342 70.111 104.028 69.8348C103.713 69.5489 103.308 69.406 102.813 69.406C101.803 69.406 101.136 69.93 100.812 70.978Z" fill="white"/>
</svg>
