<svg width="113" height="83" viewBox="0 0 113 83" fill="none" xmlns="http://www.w3.org/2000/svg">
<path d="M74.8345 32.7504L73.6441 21.8155C73.4935 20.4317 72.3301 19.3882 70.938 19.3882H70.0708V17.3981C70.0708 14.769 67.9318 12.6301 65.3028 12.6301C62.6737 12.6301 60.5348 14.7691 60.5348 17.3981V19.3881H59.6676C58.2756 19.3881 57.1122 20.4317 56.9615 21.8155L55.771 32.7504C55.5958 34.3601 56.8588 35.767 58.4771 35.767H72.1286C73.7451 35.7671 75.01 34.3622 74.8345 32.7504ZM72.1286 34.4061H58.4772C57.6654 34.4061 57.0363 33.7036 57.1242 32.8978L58.3146 21.9629C58.39 21.271 58.9717 20.7492 59.6676 20.7492H60.5348V22.4667C60.5348 22.8425 60.8395 23.1472 61.2153 23.1472C61.5911 23.1472 61.8958 22.8425 61.8958 22.4667V17.3982C61.8958 15.5196 63.4242 13.9912 65.3029 13.9912C67.1815 13.9912 68.7099 15.5196 68.7099 17.3982V19.3882H64.4026C64.0268 19.3882 63.7221 19.6929 63.7221 20.0687C63.7221 20.4445 64.0268 20.7492 64.4026 20.7492H68.7099V22.4667C68.7099 22.8425 69.0146 23.1472 69.3904 23.1472C69.7662 23.1472 70.0709 22.8425 70.0709 22.4667V20.7492H70.9381C71.6342 20.7492 72.2158 21.271 72.2911 21.9629L73.4816 32.8977C73.5695 33.7047 72.9394 34.4061 72.1286 34.4061ZM67.6847 38.3189C67.3088 38.3189 67.0042 38.6236 67.0042 38.9994C67.0042 39.7499 66.3936 40.3604 65.6432 40.3604H39.9544C39.204 40.3604 38.5934 39.7499 38.5934 38.9994V3.6136C38.5934 2.86318 39.204 2.2526 39.9544 2.2526H59.0934V7.44139C59.0934 8.94231 60.3144 10.1634 61.8154 10.1634H67.6847C68.2896 10.1634 68.5934 9.42921 68.1658 9.00169C59.6467 0.482546 60.1982 0.962552 59.907 0.904795C59.813 0.886166 60.8968 0.89161 39.9544 0.89161C38.4535 0.89161 37.2324 2.11268 37.2324 3.6136V38.9994C37.2324 40.5004 38.4535 41.7214 39.9544 41.7214H65.6432C67.1441 41.7214 68.3652 40.5004 68.3652 38.9994C68.3652 38.6235 68.0605 38.3189 67.6847 38.3189ZM61.8154 8.80239C61.065 8.80239 60.4544 8.19181 60.4544 7.44139V3.21491L66.0418 8.80239H61.8154ZM48.0451 10.9293C48.0473 9.79931 47.1337 8.88379 46.0036 8.88379H44.6302C43.5046 8.88379 42.5887 9.79957 42.5887 10.9253V12.2935C42.5887 13.4192 43.5046 14.335 44.6302 14.335H46.001C47.1245 14.335 48.0404 13.4209 48.0425 12.2974L48.0451 10.9293ZM46.6815 12.2949C46.6808 12.6694 46.3755 12.974 46.001 12.974H44.6302C44.255 12.974 43.9497 12.6687 43.9497 12.2935V10.9253C43.9497 10.5501 44.255 10.2448 44.6302 10.2448H46.0036C46.3803 10.2448 46.6848 10.5499 46.6841 10.9266L46.6815 12.2949ZM48.0353 21.1364C48.0353 20.0107 47.1194 19.0949 45.9938 19.0949H44.6328C43.5072 19.0949 42.5913 20.0107 42.5913 21.1364V22.4974C42.5913 23.6231 43.5072 24.5389 44.6328 24.5389H45.9938C47.1194 24.5389 48.0353 23.6231 48.0353 22.4974V21.1364ZM46.6743 22.4974C46.6743 22.8726 46.369 23.1779 45.9938 23.1779H44.6328C44.2576 23.1779 43.9523 22.8726 43.9523 22.4974V21.1364C43.9523 20.7612 44.2576 20.4559 44.6328 20.4559H45.9938C46.369 20.4559 46.6743 20.7612 46.6743 21.1364V22.4974ZM45.9938 29.3024H44.6328C43.5072 29.3024 42.5913 30.2181 42.5913 31.3438V32.7048C42.5913 33.8306 43.5072 34.7463 44.6328 34.7463H45.9938C47.1194 34.7463 48.0353 33.8306 48.0353 32.7048V31.3438C48.0353 30.2181 47.1194 29.3024 45.9938 29.3024ZM46.6743 32.7048C46.6743 33.08 46.369 33.3853 45.9938 33.3853H44.6328C44.2576 33.3853 43.9523 33.08 43.9523 32.7048V31.3438C43.9523 30.9686 44.2576 30.6633 44.6328 30.6633H45.9938C46.369 30.6633 46.6743 30.9686 46.6743 31.3438V32.7048ZM56.0416 12.2899H51.3632C50.9874 12.2899 50.6827 11.9852 50.6827 11.6094C50.6827 11.2336 50.9874 10.9289 51.3632 10.9289H56.0416C56.4174 10.9289 56.7221 11.2336 56.7221 11.6094C56.7221 11.9852 56.4174 12.2899 56.0416 12.2899ZM54.0852 22.4974H51.3632C50.9874 22.4974 50.6827 22.1927 50.6827 21.8169C50.6827 21.4411 50.9874 21.1364 51.3632 21.1364H54.0852C54.461 21.1364 54.7657 21.4411 54.7657 21.8169C54.7657 22.1927 54.461 22.4974 54.0852 22.4974ZM53.0644 31.3438C53.4402 31.3438 53.7449 31.6485 53.7449 32.0243C53.7449 32.4001 53.4402 32.7048 53.0644 32.7048H51.3632C50.9874 32.7048 50.6827 32.4001 50.6827 32.0243C50.6827 31.6485 50.9874 31.3438 51.3632 31.3438H53.0644Z" fill="#00AC4E"/>
<path d="M2.36888 77.1162V67.1127H3.94086V74.4724L9.44278 67.1127H10.8718V77.1162H9.29987V69.7565L3.79795 77.1162H2.36888ZM18.3734 74.9012L19.3737 75.83C19.1736 76.0873 18.9259 76.3255 18.6306 76.5446C17.9637 77.0209 17.2349 77.2591 16.4441 77.2591C15.4438 77.2591 14.5958 76.9161 13.9004 76.2302C13.2144 75.5347 12.8714 74.6868 12.8714 73.6864C12.8714 72.6861 13.2144 71.8429 13.9004 71.157C14.5958 70.4615 15.4438 70.1138 16.4441 70.1138C17.2539 70.1138 17.9732 70.3424 18.602 70.7997C18.8878 71.0093 19.1212 71.2332 19.3022 71.4714L18.3019 72.4003C18.1685 72.2193 18.0113 72.0668 17.8303 71.943C17.3825 71.6286 16.9205 71.4714 16.4441 71.4714C15.8344 71.4714 15.3247 71.681 14.915 72.1002C14.5053 72.5098 14.3005 73.0386 14.3005 73.6864C14.3005 74.3343 14.5053 74.8678 14.915 75.287C15.3247 75.6967 15.8344 75.9015 16.4441 75.9015C16.9872 75.9015 17.4587 75.7348 17.8589 75.4013C18.0304 75.2679 18.2019 75.1012 18.3734 74.9012ZM22.368 77.1162V71.6143H20.0101V70.2567H26.1551V71.6143H23.7971V77.1162H22.368ZM27.898 76.2302C27.212 75.5347 26.8691 74.6868 26.8691 73.6864C26.8691 72.6861 27.212 71.8429 27.898 71.157C28.5935 70.4615 29.4414 70.1138 30.4417 70.1138C31.4421 70.1138 32.2852 70.4615 32.9712 71.157C33.6667 71.8429 34.0144 72.6861 34.0144 73.6864C34.0144 74.6868 33.6667 75.5347 32.9712 76.2302C32.2852 76.9161 31.4421 77.2591 30.4417 77.2591C29.4414 77.2591 28.5935 76.9161 27.898 76.2302ZM28.9126 75.287C29.3223 75.6967 29.832 75.9015 30.4417 75.9015C31.0515 75.9015 31.5612 75.6967 31.9708 75.287C32.3805 74.8678 32.5853 74.3343 32.5853 73.6864C32.5853 73.0386 32.3805 72.5098 31.9708 72.1002C31.5612 71.681 31.0515 71.4714 30.4417 71.4714C29.832 71.4714 29.3223 71.681 28.9126 72.1002C28.503 72.5098 28.2981 73.0386 28.2981 73.6864C28.2981 74.3343 28.503 74.8678 28.9126 75.287ZM35.5875 80.1173V70.2567H37.0166V71.257C37.15 71.0474 37.3357 70.8569 37.5739 70.6854C38.0884 70.3043 38.6886 70.1138 39.3745 70.1138C40.251 70.1138 41.0037 70.4567 41.6325 71.1427C42.2708 71.8191 42.5899 72.667 42.5899 73.6864C42.5899 74.7058 42.2708 75.5585 41.6325 76.2445C41.0037 76.9209 40.251 77.2591 39.3745 77.2591C38.6886 77.2591 38.0884 77.0686 37.5739 76.6875C37.3357 76.5065 37.15 76.3159 37.0166 76.1159V80.1173H35.5875ZM37.6168 75.2727C38.0169 75.6919 38.5076 75.9015 39.0887 75.9015C39.6699 75.9015 40.1605 75.6919 40.5607 75.2727C40.9608 74.8535 41.1609 74.3248 41.1609 73.6864C41.1609 73.0481 40.9608 72.5194 40.5607 72.1002C40.1605 71.681 39.6699 71.4714 39.0887 71.4714C38.5076 71.4714 38.0169 71.681 37.6168 72.1002C37.2166 72.5194 37.0166 73.0481 37.0166 73.6864C37.0166 74.3248 37.2166 74.8535 37.6168 75.2727ZM44.1563 77.1162V70.2567H45.5854V74.8297L49.1581 70.2567H50.4443V77.1162H49.0152V72.5432L45.4425 77.1162H44.1563ZM51.9459 77.1162L53.5179 74.6153C53.2797 74.5201 53.051 74.3724 52.8319 74.1723C52.3841 73.7436 52.1603 73.2006 52.1603 72.5432C52.1603 71.8858 52.3984 71.3428 52.8748 70.914C53.3511 70.4758 53.9942 70.2567 54.804 70.2567H57.8765V77.1162H56.4475V74.8297H54.9469L53.5893 77.1162H51.9459ZM54.804 73.5435H56.4475V71.5428H54.804C54.4134 71.5428 54.1133 71.6381 53.9037 71.8287C53.6941 72.0097 53.5893 72.2478 53.5893 72.5432C53.5893 72.8385 53.6941 73.0815 53.9037 73.272C54.1133 73.453 54.4134 73.5435 54.804 73.5435ZM62.085 76.0444L63.0139 75.1155C63.1473 75.2679 63.314 75.4109 63.5141 75.5442C63.9523 75.83 64.4049 75.973 64.8717 75.973C65.2528 75.973 65.5481 75.8872 65.7577 75.7157C65.9769 75.5347 66.0864 75.3108 66.0864 75.0441C66.0864 74.8059 65.9769 74.6058 65.7577 74.4438C65.5481 74.2724 65.2528 74.1866 64.8717 74.1866H63.9428V72.9005H64.8003C65.1432 72.9005 65.4052 72.829 65.5863 72.6861C65.7768 72.5432 65.8721 72.3765 65.8721 72.1859C65.8721 71.9573 65.7816 71.7715 65.6005 71.6286C65.4195 71.4761 65.1528 71.3999 64.8003 71.3999C64.362 71.3999 63.9619 71.5 63.5998 71.7C63.4569 71.7667 63.3093 71.862 63.1568 71.9858L62.2279 71.057C62.409 70.8855 62.6233 70.7283 62.871 70.5854C63.4808 70.271 64.1238 70.1138 64.8003 70.1138C65.5815 70.1138 66.2055 70.3043 66.6723 70.6854C67.1392 71.0665 67.3726 71.519 67.3726 72.043C67.3726 72.5289 67.182 72.9243 66.801 73.2291C66.6009 73.3816 66.4103 73.4864 66.2293 73.5435C66.477 73.6293 66.7009 73.7436 66.901 73.8865C67.3583 74.2485 67.587 74.682 67.587 75.187C67.587 75.7491 67.3392 76.235 66.8438 76.6446C66.3484 77.0543 65.6911 77.2591 64.8717 77.2591C64.0905 77.2591 63.395 77.059 62.7853 76.6589C62.4899 76.4684 62.2565 76.2635 62.085 76.0444ZM73.1665 77.1162V76.1159C73.0331 76.3159 72.8521 76.5065 72.6234 76.6875C72.109 77.0686 71.5516 77.2591 70.9514 77.2591C70.2845 77.2591 69.7367 77.0638 69.308 76.6732C68.8793 76.2826 68.6649 75.811 68.6649 75.2584C68.6649 74.6963 68.8411 74.2247 69.1936 73.8436C69.5557 73.4626 70.0463 73.2196 70.6656 73.1148L73.1665 72.6861C73.1665 72.3145 73.0331 72.0097 72.7663 71.7715C72.4996 71.5238 72.1566 71.3999 71.7374 71.3999C71.3182 71.3999 70.8847 71.5571 70.4369 71.8715C70.275 71.9858 70.113 72.1383 69.9511 72.3288L69.0222 71.3999C69.2127 71.1522 69.4414 70.9379 69.7081 70.7568C70.3083 70.3281 70.9848 70.1138 71.7374 70.1138C72.5853 70.1138 73.2713 70.3662 73.7953 70.8712C74.3288 71.3666 74.5955 71.9954 74.5955 72.7575V77.1162H73.1665ZM73.1665 74.0437V73.8293L71.1658 74.1866C70.4512 74.3105 70.094 74.6201 70.094 75.1155C70.094 75.3727 70.194 75.5919 70.3941 75.7729C70.6037 75.9539 70.8847 76.0444 71.2372 76.0444C71.7803 76.0444 72.2376 75.8539 72.6091 75.4728C72.9807 75.0917 73.1665 74.6153 73.1665 74.0437ZM76.5895 77.1162V70.2567H78.0186V73.4006L80.9482 70.2567H82.7345L80.0908 73.0434L82.9489 77.1162H81.3055L79.1619 74.0437L78.0186 75.2584V77.1162H76.5895ZM87.8061 77.1162V76.1159C87.6727 76.3159 87.4917 76.5065 87.263 76.6875C86.7485 77.0686 86.1912 77.2591 85.591 77.2591C84.9241 77.2591 84.3763 77.0638 83.9476 76.6732C83.5188 76.2826 83.3045 75.811 83.3045 75.2584C83.3045 74.6963 83.4807 74.2247 83.8332 73.8436C84.1953 73.4626 84.6859 73.2196 85.3052 73.1148L87.8061 72.6861C87.8061 72.3145 87.6727 72.0097 87.4059 71.7715C87.1392 71.5238 86.7962 71.3999 86.377 71.3999C85.9578 71.3999 85.5243 71.5571 85.0765 71.8715C84.9146 71.9858 84.7526 72.1383 84.5907 72.3288L83.6618 71.3999C83.8523 71.1522 84.0809 70.9379 84.3477 70.7568C84.9479 70.3281 85.6243 70.1138 86.377 70.1138C87.2249 70.1138 87.9109 70.3662 88.4349 70.8712C88.9684 71.3666 89.2351 71.9954 89.2351 72.7575V77.1162H87.8061ZM87.8061 74.0437V73.8293L85.8054 74.1866C85.0908 74.3105 84.7336 74.6201 84.7336 75.1155C84.7336 75.3727 84.8336 75.5919 85.0337 75.7729C85.2433 75.9539 85.5243 76.0444 85.8768 76.0444C86.4199 76.0444 86.8772 75.8539 87.2487 75.4728C87.6203 75.0917 87.8061 74.6153 87.8061 74.0437ZM90.4431 76.0444L91.372 75.1155C91.5054 75.2679 91.6721 75.4109 91.8722 75.5442C92.3105 75.83 92.763 75.973 93.2298 75.973C93.6109 75.973 93.9063 75.8872 94.1159 75.7157C94.335 75.5347 94.4445 75.3108 94.4445 75.0441C94.4445 74.8059 94.335 74.6058 94.1159 74.4438C93.9063 74.2724 93.6109 74.1866 93.2298 74.1866H92.3009V72.9005H93.1584C93.5014 72.9005 93.7633 72.829 93.9444 72.6861C94.1349 72.5432 94.2302 72.3765 94.2302 72.1859C94.2302 71.9573 94.1397 71.7715 93.9587 71.6286C93.7776 71.4761 93.5109 71.3999 93.1584 71.3999C92.7201 71.3999 92.32 71.5 91.958 71.7C91.8151 71.7667 91.6674 71.862 91.5149 71.9858L90.5861 71.057C90.7671 70.8855 90.9814 70.7283 91.2291 70.5854C91.8389 70.271 92.4819 70.1138 93.1584 70.1138C93.9396 70.1138 94.5636 70.3043 95.0305 70.6854C95.4973 71.0665 95.7307 71.519 95.7307 72.043C95.7307 72.5289 95.5402 72.9243 95.1591 73.2291C94.959 73.3816 94.7685 73.4864 94.5874 73.5435C94.8352 73.6293 95.059 73.7436 95.2591 73.8865C95.7164 74.2485 95.9451 74.682 95.9451 75.187C95.9451 75.7491 95.6974 76.235 95.2019 76.6446C94.7065 77.0543 94.0492 77.2591 93.2298 77.2591C92.4486 77.2591 91.7531 77.059 91.1434 76.6589C90.848 76.4684 90.6146 76.2635 90.4431 76.0444ZM98.1234 76.2302C97.4374 75.5347 97.0945 74.6868 97.0945 73.6864C97.0945 72.6861 97.4374 71.8429 98.1234 71.157C98.8189 70.4615 99.6668 70.1138 100.667 70.1138C101.667 70.1138 102.511 70.4615 103.197 71.157C103.892 71.8429 104.24 72.6861 104.24 73.6864C104.24 74.6868 103.892 75.5347 103.197 76.2302C102.511 76.9161 101.667 77.2591 100.667 77.2591C99.6668 77.2591 98.8189 76.9161 98.1234 76.2302ZM99.138 75.287C99.5477 75.6967 100.057 75.9015 100.667 75.9015C101.277 75.9015 101.787 75.6967 102.196 75.287C102.606 74.8678 102.811 74.3343 102.811 73.6864C102.811 73.0386 102.606 72.5098 102.196 72.1002C101.787 71.681 101.277 71.4714 100.667 71.4714C100.057 71.4714 99.5477 71.681 99.138 72.1002C98.7284 72.5098 98.5235 73.0386 98.5235 73.6864C98.5235 74.3343 98.7284 74.8678 99.138 75.287ZM105.813 77.1162V70.2567H109.028C109.714 70.2567 110.267 70.4377 110.686 70.7997C111.105 71.1618 111.315 71.6 111.315 72.1145C111.315 72.5337 111.172 72.8862 110.886 73.172C110.762 73.3054 110.619 73.4054 110.457 73.4721C110.667 73.5578 110.858 73.6722 111.029 73.8151C111.41 74.1771 111.601 74.6106 111.601 75.1155C111.601 75.6681 111.377 76.1397 110.929 76.5303C110.481 76.9209 109.895 77.1162 109.171 77.1162H105.813ZM107.242 75.83H109.1C109.414 75.83 109.657 75.7538 109.829 75.6014C110.01 75.4394 110.1 75.2298 110.1 74.9726C110.1 74.7154 110.01 74.5105 109.829 74.3581C109.657 74.1961 109.414 74.1152 109.1 74.1152H107.242V75.83ZM107.242 72.9719H108.957C109.528 72.9719 109.814 72.7337 109.814 72.2574C109.814 71.781 109.528 71.5428 108.957 71.5428H107.242V72.9719Z" fill="#00AC4E"/>
</svg>
