<svg width="50" height="40" viewBox="0 0 50 40" fill="none" xmlns="http://www.w3.org/2000/svg">
<rect x="0.383789" y="0.129028" width="48.7964" height="39.76" rx="4.51818" fill="#00AC4E"/>
<path fill-rule="evenodd" clip-rule="evenodd" d="M29.4019 22.1176H21.3707L19.6449 15.7922H32.5647L29.4019 22.1176ZM34.3574 14.6831C33.9705 14.0569 33.3 13.6837 32.5641 13.6837H19.0698L18.4193 11.298C18.2939 10.8394 17.8774 10.521 17.402 10.521H15.2935C14.7105 10.521 14.2393 10.9933 14.2393 11.5752C14.2393 12.1572 14.7105 12.6295 15.2935 12.6295H16.5965L19.5474 23.4492C19.6728 23.9078 20.0892 24.2262 20.5647 24.2262H30.0529C30.4525 24.2262 30.8172 24.0005 30.9964 23.6432L34.4501 16.7347C34.7801 16.0758 34.7443 15.3094 34.3574 14.6831ZM20.0379 26.3346C19.165 26.3346 18.4566 27.042 18.4566 27.916C18.4566 28.7899 19.165 29.4973 20.0379 29.4973C20.9108 29.4973 21.6193 28.7899 21.6193 27.916C21.6193 27.042 20.9108 26.3346 20.0379 26.3346ZM28.999 27.916C28.999 27.042 29.7074 26.3346 30.5803 26.3346C31.4533 26.3346 32.1617 27.042 32.1617 27.916C32.1617 28.7899 31.4533 29.4973 30.5803 29.4973C29.7074 29.4973 28.999 28.7899 28.999 27.916Z" fill="white"/>
<mask id="mask0_175_1348" style="mask-type:alpha" maskUnits="userSpaceOnUse" x="14" y="10" width="21" height="20">
<path fill-rule="evenodd" clip-rule="evenodd" d="M29.4019 22.1176H21.3707L19.6449 15.7922H32.5647L29.4019 22.1176ZM34.3574 14.6831C33.9705 14.0569 33.3 13.6837 32.5641 13.6837H19.0698L18.4193 11.298C18.2939 10.8394 17.8774 10.521 17.402 10.521H15.2935C14.7105 10.521 14.2393 10.9933 14.2393 11.5752C14.2393 12.1572 14.7105 12.6295 15.2935 12.6295H16.5965L19.5474 23.4492C19.6728 23.9078 20.0892 24.2262 20.5647 24.2262H30.0529C30.4525 24.2262 30.8172 24.0005 30.9964 23.6432L34.4501 16.7347C34.7801 16.0758 34.7443 15.3094 34.3574 14.6831ZM20.0379 26.3346C19.165 26.3346 18.4566 27.042 18.4566 27.916C18.4566 28.7899 19.165 29.4973 20.0379 29.4973C20.9108 29.4973 21.6193 28.7899 21.6193 27.916C21.6193 27.042 20.9108 26.3346 20.0379 26.3346ZM28.999 27.916C28.999 27.042 29.7074 26.3346 30.5803 26.3346C31.4533 26.3346 32.1617 27.042 32.1617 27.916C32.1617 28.7899 31.4533 29.4973 30.5803 29.4973C29.7074 29.4973 28.999 28.7899 28.999 27.916Z" fill="white"/>
</mask>
<g mask="url(#mask0_175_1348)">
<rect x="12.1309" y="7.35815" width="25.3018" height="25.3018" fill="white"/>
</g>
</svg>
